<svg width="888" height="641" viewBox="0 0 888 641" fill="none" xmlns="http://www.w3.org/2000/svg">
<g clip-path="url(#clip0_130_750)">
<path d="M605.265 376.059C617.183 375.888 629.437 375.845 642.028 375.932C661.112 376.064 658.291 377.72 668.108 376.064C674.084 375.056 677.474 373.099 679.212 373.372C680.328 373.548 680.762 374.643 680.762 377.503C680.762 382.376 678.585 392.535 674.231 407.981L647.903 465.142L638.097 491.583C635.028 499.858 627.188 505.394 618.364 505.517L555.779 506.39L593.071 380.892C593.943 377.957 596.657 375.959 599.718 375.998L604.513 376.059C604.763 376.062 605.014 376.062 605.265 376.059Z" fill="#A339FF"/>
<path d="M649.769 514.453C649.609 516.221 648.122 517.607 646.312 517.607H640.178L655.673 575.442C655.665 575.658 654.471 576.138 652.867 576.567C652.127 576.766 651.378 576.931 650.867 576.997C650.355 577.062 650.025 577.062 649.998 576.962L634.095 517.607H271.614L255.711 576.962C255.596 577.145 254.323 576.964 252.719 576.534C251.979 576.336 251.247 576.104 250.772 575.906C250.296 575.707 250.01 575.541 250.036 575.442L265.532 517.607H261.213C259.296 517.607 257.741 516.053 257.741 514.135C257.741 512.217 259.296 510.663 261.213 510.663H643.731L688.422 380.857C689.046 379.044 691.022 378.08 692.835 378.705C694.648 379.329 695.612 381.305 694.987 383.118L649.769 514.453Z" fill="#D8DEED"/>
<path d="M763.908 232.852H564.682C558.783 232.852 554 237.635 554 243.535V288.939C554 294.839 558.783 299.622 564.682 299.622H763.908C769.808 299.622 774.591 294.839 774.591 288.939V243.535C774.591 237.635 769.808 232.852 763.908 232.852Z" fill="#E1E5F0"/>
<path d="M574.542 264.639H686.138C686.728 264.639 687.207 265.118 687.207 265.708V271.289C687.207 271.879 686.728 272.357 686.138 272.357H574.542C573.952 272.357 573.474 271.879 573.474 271.289V265.708C573.474 265.118 573.952 264.639 574.542 264.639ZM574.542 277.181H695.777C696.367 277.181 696.845 277.659 696.845 278.249V283.831C696.845 284.421 696.367 284.899 695.777 284.899H574.542C573.952 284.899 573.474 284.421 573.474 283.831V278.249C573.474 277.659 573.952 277.181 574.542 277.181Z" fill="#F2F6FB"/>
<path d="M697.704 252.098H574.542C573.952 252.098 573.474 252.576 573.474 253.166V258.747C573.474 259.337 573.952 259.816 574.542 259.816H697.704C698.294 259.816 698.773 259.337 698.773 258.747V253.166C698.773 252.576 698.294 252.098 697.704 252.098Z" fill="#F2F6FB"/>
<path d="M763.908 157H564.682C558.783 157 554 161.783 554 167.683V213.088C554 218.988 558.783 223.771 564.682 223.771H763.908C769.808 223.771 774.591 218.988 774.591 213.088V167.683C774.591 161.783 769.808 157 763.908 157Z" fill="#F2F6FB"/>
<path d="M741.182 285.864C730.535 285.864 721.905 277.225 721.905 266.569C721.905 255.913 730.535 247.274 741.182 247.274C751.828 247.274 760.458 255.913 760.458 266.569C760.458 277.225 751.828 285.864 741.182 285.864ZM592.75 209.695C582.104 209.695 573.474 201.056 573.474 190.4C573.474 179.744 582.104 171.105 592.75 171.105C603.397 171.105 612.027 179.744 612.027 190.4C612.027 201.056 603.397 209.695 592.75 209.695Z" fill="#474BFF"/>
<path fill-rule="evenodd" clip-rule="evenodd" d="M592.741 190.139C590.116 190.139 587.987 188.038 587.987 185.446C587.987 182.854 590.116 180.752 592.741 180.752C595.366 180.752 597.494 182.854 597.494 185.446C597.494 188.038 595.366 190.139 592.741 190.139ZM592.741 192.486C597.499 192.486 601.356 196.294 601.356 200.992H584.125C584.125 196.294 587.983 192.486 592.741 192.486ZM741.172 266.308C738.547 266.308 736.419 264.207 736.419 261.615C736.419 259.023 738.547 256.921 741.172 256.921C743.797 256.921 745.925 259.023 745.925 261.615C745.925 264.207 743.797 266.308 741.172 266.308ZM741.172 268.655C745.93 268.655 749.787 272.463 749.787 277.161H732.557C732.557 272.463 736.414 268.655 741.172 268.655Z" fill="white"/>
<path d="M622.734 186.541H734.33C734.92 186.541 735.399 187.019 735.399 187.609V193.191C735.399 193.781 734.92 194.259 734.33 194.259H622.734C622.144 194.259 621.666 193.781 621.666 193.191V187.609C621.666 187.019 622.144 186.541 622.734 186.541ZM622.734 199.083H753.607C754.197 199.083 754.675 199.561 754.675 200.151V205.732C754.675 206.322 754.197 206.801 753.607 206.801H622.734C622.144 206.801 621.666 206.322 621.666 205.732V200.151C621.666 199.561 622.144 199.083 622.734 199.083Z" fill="#E1E5F0"/>
<path d="M707.343 173.999H622.734C622.144 173.999 621.666 174.478 621.666 175.068V180.649C621.666 181.239 622.144 181.717 622.734 181.717H707.343C707.933 181.717 708.411 181.239 708.411 180.649V175.068C708.411 174.478 707.933 173.999 707.343 173.999Z" fill="#E1E5F0"/>
<path d="M280.705 379.068L280.433 379.238C279.42 379.934 279.142 381.305 279.793 382.347L325.635 454.102C326.331 455.115 327.701 455.393 328.743 454.742L329.014 454.572C330.028 453.876 330.306 452.505 329.655 451.463L283.842 379.754C283.162 378.666 281.792 378.389 280.705 379.068ZM398.324 509.592L312.331 509.592C311.003 509.592 309.927 510.668 309.927 511.995C309.927 513.323 311.003 514.399 312.331 514.399L398.324 514.399C399.651 514.399 400.727 513.323 400.727 511.995C400.727 510.668 399.651 509.592 398.324 509.592Z" fill="#FFCB3D"/>
<path d="M283.445 379.145C283.609 379.288 283.756 379.46 283.88 379.658L329.693 451.368C329.916 451.726 330.031 452.122 330.043 452.517L356.515 436.694L337.201 401.145L326.155 396.773C323.138 396.076 320.188 395.085 317.335 393.844C310.49 390.752 308.809 387.961 299.875 382.332C297.475 380.808 295.041 379.432 292.425 378.169C290.897 377.739 287.981 377.104 285.467 377.919C285.048 378.055 284.686 378.282 284.34 378.435C284.002 378.646 283.705 378.887 283.445 379.145ZM312.057 509.516C312.159 509.503 312.264 509.496 312.369 509.496L398.362 509.496C398.48 509.496 398.597 509.505 398.71 509.521L398.71 473.803L362.171 473.803C355.272 478.539 351.092 481.638 349.632 483.098C347.442 485.288 345.039 487.264 342.475 489.027C336.226 493.194 332.968 493.14 323.461 497.734C320.897 498.963 318.44 500.298 315.983 501.847C313.526 503.396 312.725 505.052 312.084 507.616C311.977 508.043 311.977 508.471 311.924 508.845C311.924 509.091 311.972 509.314 312.057 509.516Z" fill="#474961"/>
<path opacity="0.176986" d="M283.443 379.143C283.608 379.287 283.755 379.459 283.88 379.658L329.693 451.368C329.916 451.725 330.03 452.121 330.043 452.514L356.511 436.694L337.197 401.145L326.152 396.772C323.134 396.076 320.184 395.085 317.331 393.844C310.486 390.752 308.805 387.961 299.872 382.331C297.471 380.808 295.037 379.432 292.421 378.169C290.893 377.739 287.977 377.104 285.463 377.919C285.044 378.055 284.682 378.282 284.336 378.434C283.999 378.645 283.702 378.886 283.443 379.143Z" fill="#444444"/>
<path d="M342.384 419.203L334.739 395.746C333.455 391.804 335.184 387.508 338.842 385.557L355.178 376.841C363.274 364.202 374.462 355.924 390.073 362.261C390.555 362.457 391.053 362.666 391.567 362.889L391.113 362.628C417.303 347.965 433.477 339.791 439.637 338.106C445.796 336.421 452.049 338.865 458.397 345.437L524.773 438.206C565.174 440.618 585.427 452.514 585.533 473.894C585.638 495.273 574.187 508.316 551.181 513.022C528.491 514.919 509.845 514.264 495.245 511.057C478.702 511.948 464.538 509.765 452.753 504.508C433.813 496.06 416.103 477.482 399.624 448.773L398.801 474.278H343.022C340.072 474.278 337.681 471.886 337.681 468.936C337.681 468.818 337.685 468.699 337.693 468.581C339.013 448.783 340.577 432.324 342.384 419.203Z" fill="#DE3190"/>
<path opacity="0.176986" d="M495.361 511.051C478.769 511.958 464.566 509.777 452.753 504.508C433.813 496.06 416.103 477.482 399.624 448.774L398.801 474.278H343.022C340.072 474.278 337.681 471.887 337.681 468.937C337.681 468.818 337.685 468.699 337.693 468.581C340.615 424.769 344.728 397.308 350.032 386.198C358.328 368.821 370.846 354.456 390.073 362.261C390.753 362.537 391.466 362.841 392.21 363.171L428.054 383.803L432.071 401.606C441.512 453.167 453.559 485.479 468.213 498.542C474.702 504.326 483.752 508.496 495.361 511.051Z" fill="#444444"/>
<path d="M584.666 371.935C589.359 372.212 594.839 373.552 599.783 377.395C605.606 381.894 607.955 387.027 612.205 397.377C615.733 405.973 618.77 413.58 615.286 418.044C612.737 421.311 608.271 421.311 605.27 421.107C600.823 420.235 596.686 419.909 592.657 419.775L583.072 440.636C582.099 443.371 575.322 460.527 573.327 462.644C567.628 468.74 553.152 462.684 529.898 444.479C524.03 439.229 522.394 432.946 524.988 425.629C526.479 420.952 527.872 416.613 529.166 412.611C526.192 412.209 521.881 411.129 520.086 407.879C517.35 402.921 521.888 395.938 527.001 388.182C533.108 378.821 536.397 374.233 542.937 370.885C546.962 368.836 551.014 368.114 554.708 368.099C561.576 366.631 572.242 366.285 584.666 371.935Z" fill="#FFCB3D"/>
<path opacity="0.176986" d="M528.979 412.697C526.029 412.254 522.002 411.132 520.282 408.019C517.547 403.062 522.251 396.177 527.198 388.323C533.22 378.761 536.593 374.028 543.133 370.68C546.914 368.756 550.718 368.048 554.227 368.009C551.466 368.628 549.352 369.42 548.026 370.049C544.672 371.623 543.737 372.962 541.283 377.339C539.904 379.799 535.802 391.585 528.979 412.697Z" fill="#444444"/>
<path d="M495.721 385.228L495.72 385.29L532.926 385.796C534.475 385.812 535.767 384.535 535.783 382.986L535.861 378.604C535.877 377.055 534.599 375.763 533.051 375.747L495.919 375.281L495.92 375.244L491.936 377.864C490.196 378.975 490.149 381.43 491.848 382.547L495.721 385.228Z" fill="#474BFF"/>
<path d="M575.008 358.896C575.896 361.686 577.327 365.326 579.301 369.815C576.837 368.981 574.175 368.343 571.315 367.903C567.025 367.243 565.099 367.182 562.96 367.177L562.563 363.888C559.27 365.023 559.458 364.921 559.164 365.049C556.835 365.622 554.474 365.765 552.13 365.589C547.556 365.082 542.552 356.475 540.621 344.339C540.46 343.314 540.404 342.348 540.348 341.383L540.27 331.643C540.227 329.394 540.766 327.283 541.826 325.413C542.239 324.686 542.758 323.964 543.277 323.242C549.224 315.905 559.485 317.085 561.394 317.399C561.607 317.41 561.818 317.475 562.085 317.488C564.036 318.019 565.95 318.226 567.924 318.329C568.831 318.377 569.491 319.053 569.443 319.96L569.193 333.908C569.199 334.818 573.603 333.964 574.568 333.908C577.14 333.829 580.558 335.934 581.488 338.604C582.196 341.423 581.727 345.305 579.861 347.239C579.183 347.917 577.58 351.795 575.052 358.874C575.044 358.879 575.029 358.886 575.008 358.896ZM526.821 385.731L529.716 385.77C531.012 388.179 532.24 390.446 533.289 392.36C534.427 393.483 535.231 394.272 535.34 394.393C560.67 421.459 573.351 434.999 573.384 435.014C573.503 435.008 573.764 433.371 574.397 427.221C574.445 425.983 574.586 422.974 574.818 419.287C585.112 420.14 594.237 418.944 605.27 421.107C606.881 421.216 608.963 421.221 610.929 420.742C610.176 427.136 608.989 435.715 606.957 445.753C600.847 475.894 595.416 479.03 593.018 479.951C590.973 480.736 584.692 482.5 573.385 474.541C568.848 470.416 564.274 465.982 559.711 461.261C546.851 447.98 535.929 434.396 526.638 421.022C524.987 425.36 524.065 428.499 523.872 430.439C523.684 432.324 524.169 434.794 525.13 438.207C525.156 438.299 525.037 438.299 524.773 438.207L517.272 427.84C518.09 426.507 519.7 421.999 522.101 414.315C518.508 408.861 515.182 403.457 512.1 398.139L501.25 385.47C500.264 384.271 500.352 382.498 501.573 381.463L502.658 380.601C503.146 380.187 503.724 379.972 504.305 379.936L503.57 379.077C502.584 377.878 502.672 376.105 503.893 375.07L504.978 374.208C505.771 373.536 506.788 373.358 507.687 373.65C507.511 372.692 507.821 371.674 508.635 370.983L509.72 370.122C510.941 369.087 512.72 369.294 513.728 370.444L514.859 371.765C514.009 368.084 514.311 364.597 517.838 363.445C517.838 363.445 520.766 368.998 524.308 375.655L518.124 375.578L526.821 385.731Z" fill="#F2A98A"/>
<path d="M592.289 335.862C592.485 336.886 592.64 337.861 592.843 338.839C593.584 338.984 594.376 339.186 595.263 339.607C595.889 339.908 600.176 341.79 601.96 345.521C604.513 350.897 601.766 359.418 593.525 364.603C593.084 364.847 592.703 364.988 592.703 364.988C591.285 365.502 589.946 365.539 588.554 365.573C588.287 365.559 587.964 365.595 587.964 365.595C585.05 365.407 581.946 365.204 578.652 364.988C576.814 364.692 575.641 363.12 575.132 360.273C574.994 359.496 574.936 358.545 574.914 357.474C574.773 355.497 574.519 351.886 574.341 348.995C576.117 348.767 577.765 347.944 579.008 346.672C580.981 344.743 581.614 341.834 580.738 339.167C579.808 336.497 577.138 334.378 574.567 334.457C573.601 334.514 572.675 334.84 571.793 335.328C570.682 336.126 569.722 337.092 569.121 338.344L566.498 344.518L566.545 344.558C566.509 344.563 566.475 344.567 566.442 344.569C561.656 345.067 559.555 326.984 549.341 323.881C546.972 323.169 544.402 323.416 542.939 323.767C547.336 315.276 561.35 317.079 561.617 317.093C564.801 317.58 567.761 318.375 569.468 318.464C577.884 319.119 581.194 318.223 585.349 320.58C586.907 321.464 588.345 322.609 589.389 324.108C592.194 328.027 592.49 332.684 592.289 335.862ZM547.176 339.295C546.648 339.16 546.524 338.458 546.917 338.105C547.473 337.706 548.349 337.324 549.412 337.433C551.7 337.66 553.969 339.277 551.434 339.679C549.921 339.974 548.228 339.618 547.176 339.295ZM538.119 338.606C537.594 338.418 537.524 337.719 538.021 337.424C538.627 337.082 539.447 336.75 540.612 336.972C542.838 337.356 544.989 339.18 542.355 339.417C540.744 339.546 539.169 338.982 538.119 338.606Z" fill="#482D1F"/>
<path d="M542.467 341.474C542.442 341.18 542.661 340.922 542.955 340.897C543.249 340.873 543.507 341.092 543.531 341.386L543.793 344.555L543.794 344.622L543.551 350.278C543.568 350.343 543.616 350.387 543.686 350.398C543.87 350.389 544.057 350.394 544.263 350.41C544.424 350.422 544.546 350.436 544.829 350.471C545.65 350.572 546.008 350.572 546.471 350.424C546.752 350.334 547.053 350.489 547.143 350.77C547.233 351.051 547.078 351.352 546.797 351.442C546.143 351.651 545.665 351.65 544.698 351.531C544.432 351.498 544.32 351.486 544.181 351.475C544.005 351.461 543.852 351.458 543.709 351.466L543.65 351.466C543.027 351.434 542.551 350.965 542.484 350.37L542.481 350.287L542.726 344.61L542.467 341.474Z" fill="#482D1F"/>
<path d="M547.714 355.242C548.089 355.195 549.054 354.998 549.277 354.415C549.279 354.308 549.389 354.15 549.337 354.042C549.182 353.772 547.526 353.743 547.526 353.743C545.336 353.758 544.804 353.642 544.639 353.906C544.582 354.066 544.579 354.279 544.944 354.766C545.356 355.682 547.124 355.339 547.714 355.242Z" fill="#482D1F"/>
<path d="M562.381 363.88L566.797 362.293L562.938 367.007L562.381 363.88Z" fill="#482D1F"/>
<path d="M541.66 345.532C540.965 346.565 539.28 344.016 539.745 342.275C539.891 341.534 540.382 341.346 540.758 341.312C541.345 341.343 541.963 341.803 541.98 342.5C542.092 343.415 542.174 344.917 541.66 345.532ZM550.332 345.802C549.583 346.832 547.951 344.286 548.417 342.546C548.563 341.804 549.054 341.616 549.43 341.582C550.017 341.613 550.635 342.073 550.652 342.77C550.764 343.685 550.899 345.19 550.332 345.802Z" fill="#482D1F"/>
<path d="M467.362 353.925C465.979 354.93 465.672 356.869 466.677 358.252L512.482 421.303C513.486 422.686 515.426 422.993 516.809 421.988C518.191 420.984 518.499 419.044 517.494 417.661L471.689 354.61C470.685 353.227 468.745 352.92 467.362 353.925Z" fill="#474961"/>
<path opacity="0.2" d="M522.165 414.513C519.752 422.239 518.135 426.771 517.314 428.107L524.815 438.474C525.079 438.566 525.199 438.566 525.173 438.474C524.212 435.061 523.726 432.591 523.914 430.706C524.11 428.745 525.05 425.557 526.735 421.145L522.165 414.513Z" fill="#8C2A00"/>
<path d="M574.09 406.515C574.055 406.565 573.988 406.666 573.894 406.814C573.735 407.063 573.562 407.348 573.382 407.662C572.69 408.869 572.099 410.142 571.718 411.379C570.701 414.674 571.36 416.801 574.349 417.576C574.777 417.687 575.034 418.124 574.923 418.552C574.812 418.981 574.375 419.238 573.947 419.127C569.896 418.077 568.934 414.968 570.187 410.906C570.608 409.541 571.246 408.167 571.992 406.865C572.185 406.528 572.371 406.222 572.543 405.952C572.648 405.788 572.726 405.67 572.771 405.605C573.022 405.241 573.521 405.149 573.886 405.401C574.25 405.652 574.341 406.151 574.09 406.515Z" fill="#482D1F"/>
<path d="M339.682 0H529.294C535.194 0 539.976 4.78309 539.976 10.6833V158.647C539.976 160.418 538.542 161.852 536.772 161.852H332.205C330.435 161.852 329 160.418 329 158.647V10.6833C329 4.78309 333.783 0 339.682 0Z" fill="#F2F6FB"/>
<path d="M521.992 35.6626H343.391C342.211 35.6626 341.254 36.6192 341.254 37.7993V80.577C341.254 81.7571 342.211 82.7137 343.391 82.7137H521.992C523.171 82.7137 524.128 81.7571 524.128 80.577V37.7993C524.128 36.6192 523.171 35.6626 521.992 35.6626Z" fill="#A339FF"/>
<path d="M439.155 55.1424C440.365 55.1424 441.347 54.1522 441.347 52.9306C441.347 51.7091 440.365 50.7189 439.155 50.7189C437.944 50.7189 436.963 51.7091 436.963 52.9306C436.963 54.1522 437.944 55.1424 439.155 55.1424Z" fill="#F2F6FB"/>
<path d="M439.284 68.536C439.284 68.536 438.807 68.536 438.21 68.536H419.854C419.261 68.536 419.035 68.1276 419.344 67.6306L428.299 53.2472C428.61 52.7472 429.129 52.7454 429.453 53.2375L437.254 65.165" fill="#F2F6FB"/>
<path d="M432.747 68.5489C432.747 68.5489 432.997 68.1459 433.313 67.6382L438.372 59.4947C438.685 58.9918 439.208 58.9761 439.542 59.4615L445.007 67.4015C445.34 67.8861 445.136 68.2936 444.547 68.3119L440.017 68.4522" fill="#F2F6FB"/>
<path d="M342.323 91.1828H406.172C406.761 91.1828 407.24 91.6611 407.24 92.2511V97.6426C407.24 98.2327 406.761 98.711 406.172 98.711H342.323C341.733 98.711 341.254 98.2327 341.254 97.6426V92.2511C341.254 91.6611 341.733 91.1828 342.323 91.1828ZM342.323 103.416H387.319C387.909 103.416 388.387 103.894 388.387 104.484V109.876C388.387 110.466 387.909 110.944 387.319 110.944H342.323C341.733 110.944 341.254 110.466 341.254 109.876V104.484C341.254 103.894 341.733 103.416 342.323 103.416ZM342.323 115.649H396.745C397.335 115.649 397.813 116.128 397.813 116.718V122.109C397.813 122.699 397.335 123.178 396.745 123.178H342.323C341.733 123.178 341.254 122.699 341.254 122.109V116.718C341.254 116.128 341.733 115.649 342.323 115.649ZM342.323 127.883H377.892C378.482 127.883 378.96 128.361 378.96 128.951V134.342C378.96 134.932 378.482 135.411 377.892 135.411H342.323C341.733 135.411 341.254 134.932 341.254 134.342V128.951C341.254 128.361 341.733 127.883 342.323 127.883ZM427.161 103.416H492.895C493.485 103.416 493.963 103.894 493.963 104.484V109.876C493.963 110.466 493.485 110.944 492.895 110.944H427.161C426.571 110.944 426.093 110.466 426.093 109.876V104.484C426.093 103.894 426.571 103.416 427.161 103.416ZM427.161 115.649H501.379C501.969 115.649 502.447 116.128 502.447 116.718V122.109C502.447 122.699 501.969 123.178 501.379 123.178H427.161C426.571 123.178 426.093 122.699 426.093 122.109V116.718C426.093 116.128 426.571 115.649 427.161 115.649ZM427.161 127.883H509.863C510.453 127.883 510.931 128.361 510.931 128.951V134.342C510.931 134.932 510.453 135.411 509.863 135.411H427.161C426.571 135.411 426.093 134.932 426.093 134.342V128.951C426.093 128.361 426.571 127.883 427.161 127.883ZM427.161 140.116H484.411C485.001 140.116 485.48 140.594 485.48 141.184V146.576C485.48 147.166 485.001 147.644 484.411 147.644H427.161C426.571 147.644 426.093 147.166 426.093 146.576V141.184C426.093 140.594 426.571 140.116 427.161 140.116ZM427.161 91.1828H509.863C510.453 91.1828 510.931 91.6611 510.931 92.2511V97.6426C510.931 98.2327 510.453 98.711 509.863 98.711H427.161C426.571 98.711 426.093 98.2327 426.093 97.6426V92.2511C426.093 91.6611 426.571 91.1828 427.161 91.1828Z" fill="#E1E5F0"/>
<path d="M293.635 33H91.2047C89.4348 33 88 34.4349 88 36.205V186.84C88 188.61 89.4348 190.045 91.2047 190.045H293.635C295.405 190.045 296.84 188.61 296.84 186.84V36.205C296.84 34.4349 295.405 33 293.635 33Z" fill="#F2F6FB"/>
<path d="M177.385 97.5944H207.455V108.776C207.455 109.959 206.497 110.917 205.317 110.917H179.524C178.343 110.917 177.385 109.959 177.385 108.776V97.5944Z" fill="#E1E5F0"/>
<path d="M129.191 156.537H159.261V167.719C159.261 168.901 158.303 169.859 157.123 169.859H131.33C130.149 169.859 129.191 168.901 129.191 167.719V156.537Z" fill="#E1E5F0"/>
<path d="M177.385 156.537H207.455V167.719C207.455 168.901 206.497 169.859 205.317 169.859H179.524C178.343 169.859 177.385 168.901 177.385 167.719V156.537Z" fill="#E1E5F0"/>
<path d="M225.991 156.537H256.061V167.719C256.061 168.901 255.103 169.859 253.922 169.859H228.129C226.948 169.859 225.991 168.901 225.991 167.719V156.537Z" fill="#E1E5F0"/>
<path d="M177.385 75.1004C177.385 73.9225 178.343 72.9677 179.524 72.9677H205.316C206.497 72.9677 207.455 73.9241 207.455 75.1004V100.293H177.385V75.1004ZM129.191 133.777C129.191 132.594 130.149 131.636 131.33 131.636H157.123C158.304 131.636 159.261 132.59 159.261 133.777V159.363H129.191V133.777ZM177.385 133.777C177.385 132.594 178.343 131.636 179.524 131.636H205.316C206.497 131.636 207.455 132.59 207.455 133.777V159.363H177.385V133.777ZM225.991 133.777C225.991 132.594 226.949 131.636 228.129 131.636H253.922C255.103 131.636 256.061 132.59 256.061 133.777V159.363H225.991V133.777Z" fill="#474BFF"/>
<path d="M240.408 131.91V130.241V123.691C240.408 123.106 239.932 122.625 239.344 122.625H146.732C146.144 122.625 145.668 123.104 145.668 123.694V131.91H142.785V122.471C142.785 120.995 143.983 119.799 145.46 119.799H240.616C242.094 119.799 243.291 120.99 243.291 122.47V125.657V131.91H240.408Z" fill="#E1E5F0"/>
<path d="M193.862 110.917H190.978V131.91H193.862V110.917Z" fill="#E1E5F0"/>
<path d="M88 41.8817C88 36.9765 91.9739 33 96.8818 33H287.958C292.864 33 296.84 36.9754 296.84 41.8817V50.7634H88V41.8817Z" fill="#E1E5F0"/>
<path d="M100.152 45.9189C102.313 45.9189 104.065 44.2017 104.065 42.0836C104.065 39.9654 102.313 38.2483 100.152 38.2483C97.9905 38.2483 96.2385 39.9654 96.2385 42.0836C96.2385 44.2017 97.9905 45.9189 100.152 45.9189Z" fill="#FF5645"/>
<path d="M112.921 45.9189C115.082 45.9189 116.834 44.2017 116.834 42.0836C116.834 39.9654 115.082 38.2483 112.921 38.2483C110.76 38.2483 109.008 39.9654 109.008 42.0836C109.008 44.2017 110.76 45.9189 112.921 45.9189Z" fill="#FFCB3D"/>
<path d="M126.102 45.9189C128.263 45.9189 130.015 44.2017 130.015 42.0836C130.015 39.9654 128.263 38.2483 126.102 38.2483C123.941 38.2483 122.189 39.9654 122.189 42.0836C122.189 44.2017 123.941 45.9189 126.102 45.9189Z" fill="#3ABF7C"/>
</g>
<defs>
<clipPath id="clip0_130_750">
<rect width="908" height="641" fill="white" transform="translate(-20)"/>
</clipPath>
</defs>
</svg>
