<svg width="43" height="57" viewBox="0 0 43 57" fill="none" xmlns="http://www.w3.org/2000/svg">
<path d="M33.5689 20.3571H2.71237C1.21437 20.3571 0 21.5703 0 23.0668V54.2904C0 55.7869 1.21437 57 2.71237 57H33.5689C35.0669 57 36.2812 55.7869 36.2812 54.2904V23.0668C36.2812 21.5703 35.0669 20.3571 33.5689 20.3571Z" fill="white"/>
<path d="M40.2876 13.5714H9.43112C7.93312 13.5714 6.71875 14.7846 6.71875 16.2811V47.5047C6.71875 49.0012 7.93312 50.2143 9.43112 50.2143H40.2876C41.7856 50.2143 43 49.0012 43 47.5047V16.2811C43 14.7846 41.7856 13.5714 40.2876 13.5714Z" fill="#52459F"/>
<path d="M24.8594 6.10715V19.6786" stroke="white" stroke-width="3.28008" stroke-linecap="round"/>
<path d="M24.8594 9.5C27.4568 9.5 29.5625 7.37335 29.5625 4.75C29.5625 2.12665 27.4568 0 24.8594 0C22.2619 0 20.1562 2.12665 20.1562 4.75C20.1562 7.37335 22.2619 9.5 24.8594 9.5Z" fill="#52459F"/>
</svg>
